HIERARCHY
ROOT Hips
{
	OFFSET -3.958830 18.904000 13.208200
	CHANNELS 6 Xposition Yposition Zposition Zrotation Yrotation Xrotation 
	JOINT LHipJoint
	{
		OFFSET 0.000000 0.000000 0.000000
		CHANNELS 3 Zrotation Yrotation Xrotation
		JOINT LeftUpLeg
		{
			OFFSET 1.800000 -1.400000 0.085000
			CHANNELS 3 Zrotation Yrotation Xrotation
			JOINT LeftLeg
			{
				OFFSET 2.215000 -6.000000 0.000000
				CHANNELS 3 Zrotation Yrotation Xrotation
				JOINT LeftFoot
				{
					OFFSET 2.500000 -6.900000 0.000000
					CHANNELS 3 Zrotation Yrotation Xrotation
					JOINT LeftToeBase
					{
						OFFSET 0.200000 -0.500000 1.950000
						CHANNELS 3 Zrotation Yrotation Xrotation
						End Site
						{
							OFFSET 0.000000 0.000000 0.000000
						}
					}
				}
			}
		}
	}
	JOINT RHipJoint
	{
		OFFSET 0.000000 0.000000 0.000000
		CHANNELS 3 Zrotation Yrotation Xrotation
		JOINT RightUpLeg
		{
			OFFSET -1.800000 -1.400000 0.085000
			CHANNELS 3 Zrotation Yrotation Xrotation
			JOINT RightLeg
			{
				OFFSET -2.215000 -6.000000 0.000000
				CHANNELS 3 Zrotation Yrotation Xrotation
				JOINT RightFoot
				{
					OFFSET -2.500000 -6.900000 0.000000
					CHANNELS 3 Zrotation Yrotation Xrotation
					JOINT RightToeBase
					{
						OFFSET -0.200000 -0.500000 1.950000
						CHANNELS 3 Zrotation Yrotation Xrotation
						End Site
						{
							OFFSET 0.000000 0.000000 0.000000
						}
					}
				}
			}
		}
	}
	JOINT LowerBack
	{
		OFFSET 0.000000 0.000000 0.000000
		CHANNELS 3 Zrotation Yrotation Xrotation
		JOINT Spine
		{
			OFFSET -0.087000 1.940000 -0.288900
			CHANNELS 3 Zrotation Yrotation Xrotation
			JOINT Spine1
			{
				OFFSET 0.000000 1.950000 0.060000
				CHANNELS 3 Zrotation Yrotation Xrotation
				JOINT Neck
				{
					OFFSET 0.000000 0.000000 0.000000
					CHANNELS 3 Zrotation Yrotation Xrotation
					JOINT Neck1
					{
						OFFSET 0.000000 1.600000 0.340000
						CHANNELS 3 Zrotation Yrotation Xrotation
						JOINT Head
						{
							OFFSET 0.000000 1.667000 -0.240000
							CHANNELS 3 Zrotation Yrotation Xrotation
							End Site
							{
								OFFSET 0.000000 0.000000 0.000000
							}
						}
					}
				}
				JOINT LeftShoulder
				{
					OFFSET 0.000000 0.000000 0.000000
					CHANNELS 3 Zrotation Yrotation Xrotation
					JOINT LeftArm
					{
						OFFSET 2.700000 1.550000 -0.730000
						CHANNELS 3 Zrotation Yrotation Xrotation
						JOINT LeftForeArm
						{
							OFFSET 5.450000 0.000000 0.000000
							CHANNELS 3 Zrotation Yrotation Xrotation
							JOINT LeftHand
							{
								OFFSET 3.450000 0.000000 0.000000
								CHANNELS 3 Zrotation Yrotation Xrotation
								JOINT LeftHandIndex1
								{
									OFFSET 0.750000 0.000000 0.000000
									CHANNELS 3 Zrotation Yrotation Xrotation
									End Site
									{
										OFFSET 0.000000 0.000000 0.000000
									}
								}
							}
						}
					}
				}
				JOINT RightShoulder
				{
					OFFSET 0.000000 0.000000 0.000000
					CHANNELS 3 Zrotation Yrotation Xrotation
					JOINT RightArm
					{
						OFFSET -2.700000 1.550000 -0.730000
						CHANNELS 3 Zrotation Yrotation Xrotation
						JOINT RightForeArm
						{
							OFFSET -5.450000 0.000000 0.000000
							CHANNELS 3 Zrotation Yrotation Xrotation
							JOINT RightHand
							{
								OFFSET -3.450000 0.000000 0.000000
								CHANNELS 3 Zrotation Yrotation Xrotation
								JOINT RightHandIndex1
								{
									OFFSET -0.750000 0.000000 0.000000
									CHANNELS 3 Zrotation Yrotation Xrotation
									End Site
									{
										OFFSET 0.000000 0.000000 0.000000
									}
								}
							}
						}
					}
				}
			}
		}
	}
}
MOTION
Frames: 9
Frame Time: 0.016667
-0.017370 17.043250 -0.898150 -1.632816 -1.780191 11.210436 -15.261701 12.710541 2.508791 1.712070 -0.773631 -7.935602 -6.837240 4.423255 4.043719 -0.754098 4.652661 3.674156 0.191730 -0.312940 -0.026300 18.484750 -9.733640 3.277466 -0.193165 5.398309 -34.439650 5.685484 -2.802878 8.164861 0.583908 -2.408725 3.986645 0.246710 1.286490 0.320050 -3.805018 -1.780741 -6.436241 12.308920 -7.428614 -0.320909 -6.537432 -7.107413 4.602503 1.318430 -4.100849 -2.662575 -6.517449 9.980427 12.427876 -5.529510 7.259740 6.141920 -7.769396 19.367777 -1.946029 -58.854182 15.165221 -17.946365 12.964762 -33.404502 -5.452016 -4.768588 2.951383 -0.112870 1.102590 -0.956790 0.440160 5.762081 -18.622481 1.036901 57.540858 -20.781529 -22.130858 35.169729 50.071392 9.121485 1.189170 -2.403184 -0.591560 0.394050 0.142990 -0.198230 
-0.016010 17.040990 -0.879590 -1.886122 -1.381357 11.181112 -15.248202 12.695848 2.511393 2.262677 -0.775885 -7.678440 -7.154848 4.467906 3.798665 -0.740962 4.679575 3.651439 0.203670 -0.310140 -0.006140 18.495370 -9.749416 3.262166 0.099596 5.342827 -33.713088 5.819185 -2.755124 7.428605 0.558577 -2.379835 3.997504 0.234870 1.243930 0.316120 -3.840690 -1.739070 -6.456093 13.022852 -7.598603 -0.140188 -7.107729 -7.321815 4.107121 1.665325 -4.116042 -2.337020 -6.534443 9.989659 12.691651 -5.587890 7.522040 5.737200 -7.798701 20.243555 -2.426464 -58.559793 15.204934 -17.938647 14.936782 -33.869010 -5.862679 -4.730014 2.936835 -0.069490 1.065540 -0.922860 0.437600 5.046562 -19.703767 1.178456 57.997705 -21.786935 -22.573874 36.676675 50.889980 10.087549 1.176128 -2.412929 -0.587580 0.382730 0.130740 -0.212720 
-0.015380 17.031420 -0.840710 -1.976705 -0.286505 11.279844 -15.236692 12.645097 2.499710 2.979551 -0.806847 -7.409981 -7.595202 4.518860 3.490439 -0.766035 4.774172 3.622669 0.238100 -0.274600 0.029820 18.509034 -9.770903 3.223638 0.052248 5.134010 -32.455743 6.326423 -2.647956 5.751190 0.531463 -2.434976 3.979337 0.270510 1.245960 0.331000 -3.881508 -1.635195 -6.440496 13.783109 -7.933761 -0.405341 -7.756094 -7.801196 3.449932 2.008872 -3.921020 -1.510373 -6.194574 10.057879 12.576461 -6.099360 7.861110 5.228610 -7.764497 21.871941 -3.272509 -57.784932 15.125841 -17.454659 17.767275 -34.310850 -6.406161 -4.763404 2.917080 -0.058450 1.084460 -0.913560 0.447060 4.351841 -21.777632 0.977941 58.121365 -23.027025 -22.675039 37.636453 52.207127 11.072398 1.112741 -2.470401 -0.598260 0.393570 0.114960 -0.227010 
-0.019590 17.022210 -0.802980 -1.849144 0.093452 11.610059 -15.233588 12.551567 2.499855 3.225612 -0.809882 -7.138740 -8.115717 4.532543 2.929009 -0.804973 4.868022 3.594902 0.267980 -0.223110 0.064460 18.525855 -9.778326 3.196234 0.172691 5.029188 -31.610563 6.437887 -2.478541 4.341406 0.527878 -2.488909 3.960166 0.334570 1.267600 0.335410 -3.913356 -1.477392 -6.408251 14.007730 -7.885934 -0.890749 -8.181680 -7.935122 2.747333 2.288063 -3.634881 -0.439685 -5.677813 10.190286 12.335679 -6.653370 8.157960 4.757120 -7.728775 23.827557 -4.322537 -56.794432 14.600549 -16.502042 20.847647 -34.743434 -6.959328 -4.845544 2.887934 -0.087500 1.132610 -0.927850 0.444550 3.818952 -24.119739 0.597493 58.033745 -24.177790 -22.392573 38.473025 53.387503 11.987848 1.042967 -2.530190 -0.616330 0.423770 0.109310 -0.239930 
-0.025410 17.015450 -0.769580 -1.611089 0.191085 11.893830 -15.238011 12.477532 2.491643 3.178162 -0.805226 -6.883162 -8.391935 4.529146 2.622691 -0.845396 4.952349 3.571830 0.320840 -0.162500 0.119910 18.534707 -9.779396 3.171923 -0.016472 4.898346 -30.906643 6.951536 -2.401550 3.293802 0.515864 -2.592954 3.907457 0.405780 1.290450 0.361230 -3.923061 -1.359261 -6.357300 13.856132 -7.765382 -1.450827 -8.298996 -7.973550 2.348205 2.414743 -3.373614 0.548053 -5.243801 10.435480 12.204730 -7.070990 8.348810 4.504880 -7.684993 25.448370 -5.258813 -56.462839 13.534502 -15.478562 24.233086 -34.674026 -7.603828 -4.939305 2.886946 -0.128920 1.187030 -0.946290 0.446780 3.630374 -26.025853 0.131263 57.837708 -24.896118 -22.015277 38.580163 54.728959 12.600319 0.977003 -2.618198 -0.620120 0.435450 0.094740 -0.252580 
-0.029670 17.011820 -0.745400 -1.624210 0.288144 11.886311 -15.231477 12.447467 2.492724 3.309393 -0.795165 -6.676110 -8.660820 4.574603 2.515231 -0.823519 4.977193 3.557795 0.323590 -0.162210 0.127840 18.543165 -9.798205 3.148651 -0.034473 4.762756 -30.010474 7.461229 -2.419873 2.772128 0.501504 -2.663604 3.878070 0.403690 1.272780 0.361710 -3.945540 -1.295825 -6.343644 14.024138 -7.647161 -1.557982 -8.515747 -7.937037 2.172764 2.586627 -3.280386 0.967455 -5.059911 10.414047 12.592302 -7.101250 8.474460 4.746360 -7.451379 26.349292 -5.729447 -56.510663 12.863551 -15.099399 27.024731 -35.025479 -8.217970 -4.939920 2.903555 -0.135240 1.179970 -0.944630 0.442120 3.051016 -27.091072 0.080568 58.854702 -25.318339 -22.524825 38.000653 55.867176 12.874964 0.967831 -2.655265 -0.612490 0.412530 0.085440 -0.255270 
-0.030620 17.017750 -0.733000 -1.747992 0.166839 11.692143 -15.227015 12.466983 2.502812 3.504680 -0.796468 -6.672082 -9.128836 4.727050 2.808786 -0.775763 5.002150 3.539034 0.292140 -0.212370 0.096940 18.540774 -9.806350 3.126748 -0.167325 4.629890 -29.190159 8.369041 -2.608721 2.906374 0.484742 -2.724414 3.871762 0.349110 1.251040 0.352010 -3.948061 -1.342673 -6.347884 14.086258 -7.550102 -1.342593 -8.335298 -7.850545 2.166621 2.557194 -3.287009 0.992428 -5.095241 10.319740 13.407066 -6.731350 8.386780 5.147780 -6.885140 26.785052 -5.713187 -57.354627 12.647582 -15.360601 28.920252 -35.697444 -8.814680 -4.894592 2.906021 -0.109160 1.142820 -0.937320 0.435770 2.498855 -27.514395 0.056361 59.906514 -24.893283 -22.959622 37.183705 56.435421 12.928616 0.987060 -2.631018 -0.602320 0.390480 0.099390 -0.253590 
-0.034040 17.028670 -0.730610 -2.010187 0.231967 11.503050 -15.224573 12.553722 2.464249 3.844373 -0.812447 -6.942643 -8.755782 4.836983 3.777938 -0.749880 4.951836 3.545313 0.267080 -0.240770 0.095100 18.528643 -9.820048 3.128125 -0.262682 4.537897 -28.568474 8.923690 -2.741280 2.962357 0.457623 -2.741687 3.875350 0.300460 1.216820 0.345070 -3.932741 -1.461598 -6.347078 14.220447 -7.624650 -1.018503 -8.030568 -7.933084 2.207874 2.613047 -3.167257 0.916447 -4.938485 9.898459 14.220611 -7.027930 8.506400 5.059690 -6.682511 26.745639 -5.543619 -57.877555 12.712208 -15.739607 30.695522 -36.766875 -9.514582 -4.840392 2.873428 -0.074670 1.106350 -0.900070 0.426270 2.181029 -27.661559 -0.005568 60.603487 -24.283163 -23.250106 36.648955 57.152596 13.096396 1.013257 -2.596150 -0.589820 0.380450 0.096380 -0.253270 
-0.037480 17.042830 -0.736430 -2.156340 0.151916 11.168729 -15.231632 12.670582 2.442177 3.943821 -0.821214 -7.253732 -8.372354 4.947911 4.860474 -0.728522 4.890073 3.533848 0.246860 -0.286920 0.098880 18.505804 -9.817841 3.124870 -0.410619 4.421842 -28.004020 8.822426 -2.749313 2.747246 0.430920 -2.694936 3.884600 0.234240 1.147740 0.341000 -3.887372 -1.666723 -6.363536 13.991704 -7.592869 -0.487173 -7.457943 -7.870713 2.300858 2.548143 -3.113878 0.674404 -4.944414 9.397371 15.452871 -7.060720 8.419450 4.952740 -6.592222 26.333564 -5.166258 -58.239617 12.839222 -16.161383 32.248174 -38.175633 -10.326435 -4.744940 2.869411 -0.010260 1.034720 -0.853340 0.402130 2.183680 -27.304013 -0.055114 61.150240 -23.240699 -23.389002 35.755400 57.465789 13.003655 1.060870 -2.542777 -0.568970 0.343250 0.103730 -0.267090 
